<mxfile host="app.diagrams.net" modified="2023-05-22T02:06:50.080Z" agent="Mozilla/5.0 (Windows NT 10.0; Win64; x64) AppleWebKit/537.36 (KHTML, like Gecko) Chrome/113.0.0.0 Safari/537.36" version="21.3.2" etag="fEi1pY8kS5fH5TPDb0iD" type="github">
  <diagram name="第 1 页" id="imuyFK-UBh-i5WH5-fwb">
    <mxGraphModel>
      <root>
        <mxCell id="0" />
        <mxCell id="1" parent="0" />
      </root>
    </mxGraphModel>
  </diagram>
</mxfile>
